<svg width="15" height="13" viewBox="0 0 15 13" fill="none" xmlns="http://www.w3.org/2000/svg">
<path d="M13.491 6.57655L14.6045 7.10764C15.1056 7.3542 15.1356 7.811 14.6673 8.1328L8.3514 12.4788C8.11749 12.6398 7.80952 12.7158 7.50179 12.7158C7.19382 12.7158 6.88608 12.6398 6.65194 12.4788L0.332255 8.13256C-0.136026 7.81076 -0.104854 7.35397 0.399286 7.10741L1.51679 6.57631L6.33788 9.05576C6.65921 9.22709 7.0703 9.31616 7.50179 9.31616C7.92882 9.31616 8.34858 9.22709 8.66124 9.05576L13.491 6.57655ZM11.9826 5.85162L12.7583 6.22475L8.40976 8.46537C8.16061 8.58701 7.82686 8.65639 7.50179 8.65639C7.17249 8.65639 6.84296 8.58678 6.59382 8.46537L2.24897 6.22475L2.80772 5.95428V6.23272H11.9826V5.85162Z" fill="#FFAD33"/>
<path d="M12.7906 3.67619L14.5789 4.41073C15.1016 4.6233 15.1161 5.00979 14.6173 5.26643L8.40968 8.46518C8.16054 8.58682 7.82679 8.6562 7.50171 8.6562C7.17242 8.6562 6.84289 8.58659 6.59374 8.46518L0.390308 5.26643C-0.108208 5.00979 -0.0936769 4.62307 0.420308 4.41073L2.21257 3.67619L6.36617 5.09955C6.67507 5.20807 7.07843 5.26666 7.50171 5.26666C7.92523 5.26666 8.32367 5.20807 8.64171 5.09955L12.7906 3.67619ZM7.50171 1.72174C7.83992 1.72174 8.17812 1.77377 8.43968 1.88229L11.8791 3.29651L8.45585 4.46932C8.19242 4.56237 7.8514 4.6069 7.50171 4.6069C7.15624 4.6069 6.80679 4.56237 6.54335 4.46932L3.12851 3.29651L6.56374 1.88229C6.82085 1.77377 7.16351 1.72174 7.50171 1.72174Z" fill="#FFAD33"/>
<path d="M7.50171 0C7.85351 0 8.20554 0.0365625 8.47085 0.109922L14.5477 1.77938C15.0868 1.92586 15.0896 2.19141 14.5625 2.37352L8.45562 4.46906C8.19218 4.56211 7.85116 4.60664 7.50148 4.60664C7.15601 4.60664 6.80655 4.56211 6.54312 4.46906L0.440695 2.37352C-0.08618 2.19141 -0.0789143 1.92586 0.455695 1.77938L6.52835 0.109922C6.79788 0.0365625 7.14968 0 7.50171 0Z" fill="#FFAD33"/>
</svg>
