<svg width="134" height="24" viewBox="0 0 134 24" fill="none" xmlns="http://www.w3.org/2000/svg">
<path d="M25.4422 12.4055L27.544 13.4164C28.4969 13.8745 28.5548 14.7449 27.6729 15.3507L15.7526 23.5377C15.3117 23.8405 14.7304 23.9919 14.1491 23.9919C13.5679 23.9919 12.9866 23.8405 12.5456 23.5377L0.625347 15.3507C-0.256573 14.7449 -0.198522 13.8745 0.754213 13.4164L2.85491 12.4055L11.9554 17.0936C12.5584 17.4043 13.3376 17.5753 14.1491 17.5753C14.9607 17.5753 15.7399 17.4043 16.3429 17.0936L25.4422 12.4055ZM22.5982 11.0378L24.06 11.7412L15.8613 15.9647C15.3905 16.2072 14.7699 16.3284 14.1492 16.3284C13.5286 16.3284 12.9079 16.2072 12.4371 15.9647L4.23709 11.7412L5.29636 11.2309L5.29712 11.7559H22.5989L22.5982 11.0378Z" fill="#313983"/>
<path d="M24.1287 6.93345L27.5059 8.32488C28.4798 8.72613 28.5061 9.45132 27.5643 9.93641L15.8613 15.9647C15.3905 16.2072 14.7699 16.3284 14.1492 16.3284C13.5286 16.3284 12.9079 16.2072 12.4371 15.9647L0.734169 9.93641C-0.207504 9.45132 -0.181314 8.72613 0.792504 8.32488L4.16831 6.93345L12.006 9.62472C12.5927 9.82618 13.3538 9.93714 14.1491 9.93714C14.9445 9.93714 15.7056 9.82618 16.2923 9.62472L24.1287 6.93345ZM14.1491 3.24945C14.791 3.24945 15.4328 3.34971 15.9197 3.55033L22.4007 6.22L15.9539 8.4348C15.4575 8.60519 14.8034 8.69039 14.1491 8.69039C13.4949 8.69039 12.8406 8.60519 12.3444 8.4348L5.89741 6.22L12.3788 3.55033C12.8656 3.34971 13.5074 3.24945 14.1491 3.24945Z" fill="#505CB2"/>
<path d="M14.1491 0C14.8141 0 15.4791 0.0692987 15.9836 0.207896L27.4419 3.35584C28.4508 3.63304 28.4642 4.1387 27.4715 4.47958L15.9539 8.43481C15.4575 8.6052 14.8034 8.69039 14.1491 8.69039C13.4949 8.69039 12.8406 8.6052 12.3443 8.43481L0.826713 4.47958C-0.165919 4.1387 -0.152588 3.63304 0.856306 3.35584L12.3146 0.207896C12.8191 0.0692987 13.4842 0 14.1491 0Z" fill="url(#paint0_linear)"/>
<path d="M44.94 21.36C46.316 21.36 47.524 21.08 48.564 20.52C49.612 19.96 50.428 19.172 51.012 18.156C51.604 17.14 51.9 15.948 51.9 14.58V3.72H48.972V14.508C48.972 15.364 48.784 16.1 48.408 16.716C48.04 17.332 47.548 17.808 46.932 18.144C46.324 18.472 45.66 18.636 44.94 18.636C44.244 18.636 43.588 18.472 42.972 18.144C42.356 17.816 41.856 17.344 41.472 16.728C41.096 16.112 40.908 15.372 40.908 14.508V3.72L37.98 3.744V14.58C37.98 15.948 38.272 17.14 38.856 18.156C39.448 19.172 40.268 19.96 41.316 20.52C42.364 21.08 43.572 21.36 44.94 21.36ZM55.2294 21H58.1574V14.34C58.1574 13.292 58.3054 12.484 58.6014 11.916C58.9054 11.34 59.2894 10.944 59.7534 10.728C60.2254 10.504 60.7054 10.392 61.1934 10.392C61.8814 10.392 62.4294 10.544 62.8374 10.848C63.2454 11.144 63.5454 11.524 63.7374 11.988C63.9374 12.444 64.0654 12.92 64.1214 13.416C64.1854 13.912 64.2174 14.36 64.2174 14.76V21H67.1454V13.764C67.1454 13.46 67.1174 13.056 67.0614 12.552C67.0134 12.048 66.9014 11.516 66.7254 10.956C66.5494 10.396 66.2774 9.868 65.9094 9.372C65.5414 8.868 65.0414 8.46 64.4094 8.148C63.7854 7.828 62.9974 7.668 62.0454 7.668C61.1094 7.668 60.2854 7.832 59.5734 8.16C58.8694 8.48 58.2814 8.92 57.8094 9.48V8.04H55.2294V21ZM75.2809 21.36C76.9529 21.36 78.2609 20.988 79.2049 20.244C80.1569 19.5 80.6329 18.476 80.6329 17.172C80.6329 16.164 80.3129 15.372 79.6729 14.796C79.0409 14.22 77.9489 13.732 76.3969 13.332C75.3889 13.076 74.6289 12.86 74.1169 12.684C73.6129 12.508 73.2769 12.332 73.1089 12.156C72.9409 11.98 72.8569 11.768 72.8569 11.52C72.8569 11.088 73.0649 10.752 73.4809 10.512C73.8969 10.264 74.4449 10.156 75.1249 10.188C75.8289 10.228 76.3929 10.408 76.8169 10.728C77.2489 11.048 77.5049 11.484 77.5849 12.036L80.5369 11.508C80.3769 10.34 79.8049 9.412 78.8209 8.724C77.8369 8.028 76.5889 7.68 75.0769 7.68C73.5329 7.68 72.2969 8.04 71.3689 8.76C70.4409 9.48 69.9769 10.448 69.9769 11.664C69.9769 12.632 70.3009 13.396 70.9489 13.956C71.6049 14.516 72.7449 15.008 74.3689 15.432C75.3449 15.688 76.0649 15.904 76.5289 16.08C77.0009 16.248 77.3089 16.42 77.4529 16.596C77.5969 16.772 77.6689 17.008 77.6689 17.304C77.6689 17.784 77.4769 18.164 77.0929 18.444C76.7089 18.716 76.1729 18.852 75.4849 18.852C74.6929 18.852 74.0329 18.668 73.5049 18.3C72.9849 17.932 72.6529 17.428 72.5089 16.788L69.5569 17.244C69.7729 18.548 70.3809 19.56 71.3809 20.28C72.3809 21 73.6809 21.36 75.2809 21.36ZM90.8573 21V18.576C90.0493 18.696 89.3293 18.728 88.6973 18.672C88.0653 18.616 87.6053 18.348 87.3173 17.868C87.1653 17.62 87.0813 17.3 87.0653 16.908C87.0573 16.508 87.0533 16.052 87.0533 15.54V10.308H90.8573V8.04H87.0533V4.44H84.1733V8.04H81.8213V10.308H84.1733V15.708C84.1733 16.452 84.1813 17.116 84.1973 17.7C84.2133 18.276 84.3693 18.844 84.6653 19.404C85.0013 20.02 85.4933 20.472 86.1413 20.76C86.7893 21.04 87.5213 21.188 88.3373 21.204C89.1613 21.228 90.0013 21.16 90.8573 21ZM97.2681 21.36C98.3001 21.36 99.1761 21.192 99.8961 20.856C100.624 20.512 101.264 19.98 101.816 19.26V21H104.348V13.044C104.348 12.484 104.324 11.968 104.276 11.496C104.228 11.016 104.088 10.548 103.856 10.092C103.432 9.236 102.78 8.62 101.9 8.244C101.028 7.868 100.016 7.68 98.8641 7.68C97.3441 7.68 96.1321 8.012 95.2281 8.676C94.3241 9.34 93.7121 10.22 93.3921 11.316L96.0321 12.144C96.2481 11.48 96.6281 11.012 97.1721 10.74C97.7161 10.468 98.2801 10.332 98.8641 10.332C99.7441 10.332 100.392 10.512 100.808 10.872C101.224 11.224 101.46 11.772 101.516 12.516C100.38 12.684 99.3241 12.848 98.3481 13.008C97.3801 13.16 96.5561 13.348 95.8761 13.572C94.8521 13.924 94.1041 14.424 93.6321 15.072C93.1601 15.712 92.9241 16.504 92.9241 17.448C92.9241 18.16 93.0881 18.812 93.4161 19.404C93.7521 19.996 94.2441 20.472 94.8921 20.832C95.5401 21.184 96.3321 21.36 97.2681 21.36ZM97.8441 19.056C97.1641 19.056 96.6441 18.9 96.2841 18.588C95.9321 18.276 95.7561 17.884 95.7561 17.412C95.7561 16.988 95.8921 16.644 96.1641 16.38C96.4441 16.116 96.8321 15.892 97.3281 15.708C97.7841 15.556 98.3321 15.424 98.9721 15.312C99.6121 15.192 100.448 15.052 101.48 14.892C101.472 15.196 101.452 15.536 101.42 15.912C101.388 16.28 101.312 16.612 101.192 16.908C101.096 17.204 100.908 17.52 100.628 17.856C100.356 18.192 99.9881 18.476 99.5241 18.708C99.0601 18.94 98.5001 19.056 97.8441 19.056ZM113.1 21.36C114.548 21.36 115.772 21.008 116.772 20.304C117.772 19.592 118.472 18.576 118.872 17.256L115.92 16.596C115.696 17.26 115.36 17.768 114.912 18.12C114.472 18.472 113.868 18.648 113.1 18.648C112.012 18.648 111.192 18.268 110.64 17.508C110.096 16.748 109.82 15.752 109.812 14.52C109.82 13.328 110.084 12.344 110.604 11.568C111.132 10.784 111.964 10.392 113.1 10.392C113.764 10.392 114.356 10.588 114.876 10.98C115.396 11.364 115.768 11.904 115.992 12.6L118.872 11.82C118.568 10.54 117.904 9.532 116.88 8.796C115.856 8.052 114.608 7.68 113.136 7.68C111.824 7.68 110.692 7.976 109.74 8.568C108.788 9.152 108.052 9.96 107.532 10.992C107.02 12.016 106.76 13.192 106.752 14.52C106.76 15.824 107.012 16.992 107.508 18.024C108.012 19.056 108.736 19.872 109.68 20.472C110.624 21.064 111.764 21.36 113.1 21.36ZM121.253 21H124.205V14.76L129.161 21H132.989L127.529 14.52L132.557 8.04H128.945L124.205 14.28V3.72H121.277L121.253 21Z" fill="white"/>
<defs>
<linearGradient id="paint0_linear" x1="0.0908509" y1="3.93008" x2="13.0403" y2="7.93257" gradientUnits="userSpaceOnUse">
<stop stop-color="#96A2EF"/>
<stop offset="1" stop-color="#6F7FE2"/>
</linearGradient>
</defs>
</svg>
