<svg width="15" height="13" viewBox="0 0 15 13" fill="none" xmlns="http://www.w3.org/2000/svg">
<path d="M13.4908 6.57655L14.6043 7.10764C15.1054 7.3542 15.1354 7.811 14.6672 8.1328L8.35121 12.4788C8.11731 12.6398 7.80934 12.7158 7.5016 12.7158C7.19363 12.7158 6.8859 12.6398 6.65176 12.4788L0.332072 8.13256C-0.136209 7.81076 -0.105037 7.35397 0.399103 7.10741L1.5166 6.57631L6.3377 9.05576C6.65903 9.22709 7.07012 9.31616 7.5016 9.31616C7.92863 9.31616 8.3484 9.22709 8.66106 9.05576L13.4908 6.57655ZM11.9824 5.85162L12.7582 6.22475L8.40957 8.46537C8.16043 8.58701 7.82668 8.65639 7.5016 8.65639C7.17231 8.65639 6.84277 8.58678 6.59363 8.46537L2.24879 6.22475L2.80754 5.95428V6.23272H11.9824V5.85162Z" fill="#336CFF"/>
<path d="M12.7904 3.67619L14.5787 4.41073C15.1014 4.6233 15.1159 5.00979 14.6172 5.26643L8.4095 8.46518C8.16036 8.58682 7.82661 8.6562 7.50153 8.6562C7.17223 8.6562 6.8427 8.58659 6.59356 8.46518L0.390124 5.26643C-0.108391 5.00979 -0.09386 4.62307 0.420124 4.41073L2.21239 3.67619L6.36598 5.09955C6.67489 5.20807 7.07825 5.26666 7.50153 5.26666C7.92505 5.26666 8.32348 5.20807 8.64153 5.09955L12.7904 3.67619ZM7.50153 1.72174C7.83973 1.72174 8.17794 1.77377 8.4395 1.88229L11.879 3.29651L8.45567 4.46932C8.19223 4.56237 7.85122 4.6069 7.50153 4.6069C7.15606 4.6069 6.80661 4.56237 6.54317 4.46932L3.12833 3.29651L6.56356 1.88229C6.82067 1.77377 7.16333 1.72174 7.50153 1.72174Z" fill="#336CFF"/>
<path d="M7.50153 0C7.85332 0 8.20535 0.0365625 8.47067 0.109922L14.5475 1.77938C15.0866 1.92586 15.0894 2.19141 14.5623 2.37352L8.45543 4.46906C8.192 4.56211 7.85098 4.60664 7.50129 4.60664C7.15582 4.60664 6.80637 4.56211 6.54293 4.46906L0.440512 2.37352C-0.0863631 2.19141 -0.0790974 1.92586 0.455512 1.77938L6.52817 0.109922C6.7977 0.0365625 7.1495 0 7.50153 0Z" fill="#336CFF"/>
</svg>
