<svg width="15" height="13" viewBox="0 0 15 13" fill="none" xmlns="http://www.w3.org/2000/svg">
<path d="M13.4909 6.57655L14.6044 7.10764C15.1055 7.3542 15.1355 7.811 14.6672 8.1328L8.3513 12.4788C8.1174 12.6398 7.80943 12.7158 7.50169 12.7158C7.19373 12.7158 6.88599 12.6398 6.65185 12.4788L0.332163 8.13256C-0.136118 7.81076 -0.104946 7.35397 0.399195 7.10741L1.51669 6.57631L6.33779 9.05576C6.65912 9.22709 7.07021 9.31616 7.50169 9.31616C7.92873 9.31616 8.34849 9.22709 8.66115 9.05576L13.4909 6.57655ZM11.9825 5.85162L12.7583 6.22475L8.40966 8.46537C8.16052 8.58701 7.82677 8.65639 7.50169 8.65639C7.1724 8.65639 6.84287 8.58678 6.59373 8.46537L2.24888 6.22475L2.80763 5.95428V6.23272H11.9825V5.85162Z" fill="#FF3377"/>
<path d="M12.7905 3.67619L14.5788 4.41073C15.1015 4.6233 15.116 5.00979 14.6172 5.26643L8.40959 8.46518C8.16045 8.58682 7.8267 8.6562 7.50162 8.6562C7.17233 8.6562 6.84279 8.58659 6.59365 8.46518L0.390216 5.26643C-0.1083 5.00979 -0.0937684 4.62307 0.420216 4.41073L2.21248 3.67619L6.36608 5.09955C6.67498 5.20807 7.07834 5.26666 7.50162 5.26666C7.92514 5.26666 8.32358 5.20807 8.64162 5.09955L12.7905 3.67619ZM7.50162 1.72174C7.83983 1.72174 8.17803 1.77377 8.43959 1.88229L11.879 3.29651L8.45576 4.46932C8.19233 4.56237 7.85131 4.6069 7.50162 4.6069C7.15615 4.6069 6.8067 4.56237 6.54326 4.46932L3.12842 3.29651L6.56365 1.88229C6.82076 1.77377 7.16342 1.72174 7.50162 1.72174Z" fill="#FF3377"/>
<path d="M7.50162 0C7.85342 0 8.20545 0.0365625 8.47076 0.109922L14.5476 1.77938C15.0867 1.92586 15.0895 2.19141 14.5624 2.37352L8.45552 4.46906C8.19209 4.56211 7.85107 4.60664 7.50138 4.60664C7.15592 4.60664 6.80646 4.56211 6.54303 4.46906L0.440603 2.37352C-0.0862715 2.19141 -0.0790059 1.92586 0.455603 1.77938L6.52826 0.109922C6.79779 0.0365625 7.14959 0 7.50162 0Z" fill="#FF3377"/>
</svg>
