<svg width="512" height="512" viewBox="0 0 512 512" fill="none" xmlns="http://www.w3.org/2000/svg">
<g clip-path="url(#clip0)">
<path d="M383.805 272.665L407.56 283.995C418.25 289.255 418.89 299 408.9 305.865L274.16 398.58C269.17 402.015 262.6 403.635 256.035 403.635C249.465 403.635 242.9 402.015 237.905 398.58L103.085 305.86C93.0954 298.995 93.7604 289.25 104.515 283.99L128.355 272.66L231.205 325.555C238.06 329.21 246.83 331.11 256.035 331.11C265.145 331.11 274.1 329.21 280.77 325.555L383.805 272.665ZM351.625 257.2L368.175 265.16L275.405 312.96C270.09 315.555 262.97 317.035 256.035 317.035C249.01 317.035 241.98 315.55 236.665 312.96L143.975 265.16L155.895 259.39V265.33H351.625V257.2Z" fill="#C5CCF3"/>
<path d="M368.866 210.79L407.016 226.46C418.166 230.995 418.476 239.24 407.836 244.715L275.406 312.955C270.091 315.55 262.971 317.03 256.036 317.03C249.011 317.03 241.981 315.545 236.666 312.955L104.326 244.715C93.6907 239.24 94.0007 230.99 104.966 226.46L143.201 210.79L231.811 241.155C238.401 243.47 247.006 244.72 256.036 244.72C265.071 244.72 273.571 243.47 280.356 241.155L368.866 210.79ZM256.036 169.095C263.251 169.095 270.466 170.205 276.046 172.52L349.421 202.69L276.391 227.71C270.771 229.695 263.496 230.645 256.036 230.645C248.666 230.645 241.211 229.695 235.591 227.71L162.741 202.69L236.026 172.52C241.511 170.205 248.821 169.095 256.036 169.095Z" fill="#9AA5EA"/>
<path d="M256.036 132.365C263.541 132.365 271.051 133.145 276.711 134.71L406.351 170.325C417.851 173.45 417.911 179.115 406.666 183L276.386 227.705C270.766 229.69 263.491 230.64 256.031 230.64C248.661 230.64 241.206 229.69 235.586 227.705L105.401 183C94.1607 179.115 94.3157 173.45 105.721 170.325L235.271 134.71C241.021 133.145 248.526 132.365 256.036 132.365Z" fill="url(#paint0_linear)"/>
</g>
<defs>
<linearGradient id="paint0_linear" x1="96.8835" y1="176.815" x2="243.353" y2="222.06" gradientUnits="userSpaceOnUse">
<stop stop-color="#96A2EF"/>
<stop offset="1" stop-color="#6F7FE2"/>
</linearGradient>
<clipPath id="clip0">
<rect width="320" height="320" fill="white" transform="translate(96 88)"/>
</clipPath>
</defs>
</svg>
